<svg id="Layer_1" enable-background="new 0 0 128 128" height="512" viewBox="0 0 128 128" width="512" xmlns="http://www.w3.org/2000/svg"><g><path d="m81.1 48.5v9.1c0 6.3-3.5 12.1-9 15.1-.2.1-.4.2-.6.3-4.7 2.3-10.2 2.3-14.9 0-.2-.1-.4-.2-.6-.3-5.5-3-9-8.8-9-15.1v-9.1z" fill="#f6bf9b"/><path d="m81.1 19c-3.3 0-6.4 1.5-8.6 4-3.9-4.7-10.9-5.4-15.6-1.5-.5.4-1 .9-1.5 1.5-3.9-4.7-10.9-5.4-15.6-1.5s-5.4 10.9-1.5 15.6c2.1 2.5 5.2 4 8.5 4v7.3h34.2v-7.3c6.1 0 11.1-5 11.1-11.1s-4.9-11-11-11z" fill="#d9176c"/><path d="m71.5 73v8h-15v-8c4.7 2.3 10.3 2.3 15 0z" fill="#ed917e"/><path d="m95 102.5v6.5h-62v-6.5c0-8.3 6.7-15 15-15h3.3v-6.5h25.3v6.5h3.4c8.3 0 15 6.7 15 15z" fill="#fdbd40"/><path d="m95 102.5v6.5h-36.9v-21.5h21.9c8.3 0 15 6.7 15 15z" fill="#ffd782"/></g><path d="m68.6 99.6c0 1.3-1 2.3-2.3 2.3s-2.3-1-2.3-2.3 1-2.3 2.3-2.3 2.3 1 2.3 2.3zm-20.7-34.5c1.2 0 2.1-1.2 1.6-2.3-.1-.3-.2-.6-.3-.9-.3-.9-1.2-1.5-2.1-1.2-1 .3-1.5 1.3-1.2 2.2.1.4.2.8.4 1.1.2.7.8 1.1 1.6 1.1zm48.9 37.4v6.5c0 1-.8 1.7-1.7 1.8h-62.1c-1 0-1.8-.8-1.8-1.7v-6.5c0-9.3 7.5-16.8 16.8-16.8h1.6v-4.8c0-1 .8-1.7 1.8-1.8h3.5v-5.2c-1.2-.7-2.3-1.4-3.3-2.3-.7-.6-.8-1.7-.1-2.5.6-.7 1.7-.8 2.5-.1 2.6 2.5 6.2 3.9 10 3.9 8.4 0 15.4-6.8 15.4-15.4v-7.4h-30.8v2.8c0 1-.8 1.8-1.8 1.8s-1.8-.8-1.8-1.8c0-3.9 0-6.5 0-10.3-7-1-12-7.4-11-14.5s7.4-12 14.5-11c2.5.3 4.9 1.4 6.8 3.1 4.9-4.3 12.2-4.3 17.1 0 5.3-4.7 13.4-4.3 18.1 1s4.3 13.4-1 18.1c-1.9 1.7-4.3 2.8-6.8 3.1v14.8c0 6.8-3.7 13.1-9.7 16.4v5.2h3.5c1 0 1.7.8 1.8 1.8v4.7h1.7c4.5 0 8.7 1.8 11.9 4.9.7.7.7 1.8 0 2.5s-1.8.7-2.5 0c-2.5-2.5-5.9-3.9-9.4-3.9h-20.1v18h33.4v-4.7c0-1 .8-1.8 1.8-1.8s1.7 1.2 1.7 2.1zm-49.9-63c1 0 1.8.8 1.8 1.8v5.6h30.7v-5.6c0-1 .8-1.8 1.8-1.8 5.2 0 9.4-4.2 9.4-9.4s-4.2-9.4-9.4-9.4c-2.8 0-5.4 1.2-7.2 3.4-.7.8-2 .8-2.7 0-3.7-4.5-10.7-4.5-14.4 0-.7.8-2 .8-2.7 0-3.3-4-9.2-4.5-13.2-1.2-6.8 5.6-2.8 16.6 5.9 16.6zm11.4 39.8h11.4v-3.7c-3.7 1.2-7.7 1.2-11.4 0zm-23.6 27.9h21.7v-19.7c0-1 .8-1.8 1.8-1.8h16.8v-3h-21.9v4.7c0 1-.8 1.8-1.8 1.8h-3.3c-7.3 0-13.3 6-13.3 13.3z" fill="#593116"/></svg>