<svg id="icons" xmlns="http://www.w3.org/2000/svg" viewBox="0 0 110 110"><title>pancakes</title><circle cx="55" cy="55" r="55" fill="#e5e8ec"/><g id="pancakes"><polygon points="78 85 32 85 28 79 82 79 78 85" fill="#fff"/><circle cx="45" cy="28" r="3" fill="#fff"/><circle cx="51" cy="28" r="3" fill="#fff"/><path d="M48,29c0,1.66.66,2-1,2s-3-.34-3-2a3,3,0,0,1,3-3C48.66,26,48,27.34,48,29Z" fill="#ffd147"/><path d="M53,26c1.66,0,1,1.34,1,3s.66,2-1,2-3-.34-3-2A3,3,0,0,1,53,26Z" fill="#ffd147"/><path d="M39,37v6H34a3,3,0,0,1,0-6Z" fill="#fff"/><path d="M45,43v6H34a3,3,0,0,1,0-6h5a3,3,0,0,0,6,0Z" fill="#fff"/><path d="M45,49v6H34a3,3,0,0,1,0-6H45Z" fill="#fff"/><path d="M76,73a3,3,0,0,1,0,6H34a3,3,0,0,1,0-6H76Z" fill="#fff"/><path d="M74,67a3,3,0,0,1,0,6H32a3,3,0,0,1,0-6H74Z" fill="#fff"/><path d="M80.12,61.88A3,3,0,0,1,78,67H36a3,3,0,0,1,0-6H78A3,3,0,0,1,80.12,61.88Z" fill="#fff"/><path d="M75,61H34a3,3,0,0,1,0-6H45a3,3,0,0,0,6,0H76a3,3,0,0,1,0,6Z" fill="#fff"/><path d="M54,52a3,3,0,0,0,3-3H76a3,3,0,0,1,0,6H51V49a3,3,0,0,0,3,3Z" fill="#ffd147"/><path d="M60,43H76a3,3,0,0,1,0,6H57V43h3Z" fill="#ffd147"/><path d="M58,43H57V37H76a3,3,0,0,1,0,6H58Z" fill="#ffd147"/><path d="M42,37v6H37a3,3,0,0,1,0-6Z" fill="#ffd147"/><path d="M48,43v6H37a3,3,0,0,1,0-6h5a3,3,0,0,0,6,0Z" fill="#ffd147"/><path d="M48,49v6H37a3,3,0,0,1,0-6H48Z" fill="#ffd147"/><path d="M76,73a3,3,0,0,1,0,6H37a3,3,0,0,1,0-6H76Z" fill="#ffd147"/><path d="M74,67a3,3,0,0,1,0,6H35a3,3,0,0,1,0-6H74Z" fill="#ffd147"/><path d="M80.12,61.88A3,3,0,0,1,78,67H39a3,3,0,0,1,0-6H78A3,3,0,0,1,80.12,61.88Z" fill="#ffd147"/><path d="M75,61H37a3,3,0,0,1,0-6H76a3,3,0,0,1,0,6Z" fill="#ffd147"/><path d="M51,49v6a3,3,0,0,1-6,0V43a3,3,0,0,1-6,0V37H33V34a3,3,0,0,1,3-3H74a3,3,0,0,1,3,3v3H57V49a3,3,0,0,1-6,0Z" fill="#fff"/><path d="M76,33H37a2,2,0,0,0-2,2v2h4v6c0,4,5.12,2.88,5,2a4,4,0,0,0,1,0V56s4,4,6-1V51c-.54-.54,0-2.17,0-3v3a5.63,5.63,0,0,0,3,1,3,3,0,0,0,3-3V37H77V34C77,33.11,76,33,76,33Z" fill="#f2633a"/><path d="M76,31.78A3,3,0,0,0,74,31H39a3,3,0,0,0-2.82,2H76Z" fill="#fff"/><path d="M74,73h2a3,3,0,0,1,0,6" fill="none" stroke="#6e2a27" stroke-linecap="round" stroke-linejoin="round" stroke-width="2"/><path d="M34,79a3,3,0,0,1,0-6" fill="none" stroke="#6e2a27" stroke-linecap="round" stroke-linejoin="round" stroke-width="2"/><path d="M82,79l-3.7,5.55a1,1,0,0,1-.83.45H32.54a1,1,0,0,1-.83-.45L28,79" fill="none" stroke="#6e2a27" stroke-linecap="round" stroke-linejoin="round" stroke-width="2"/><polyline points="27 79 28 79 34 79 76 79 82 79 83 79" fill="none" stroke="#6e2a27" stroke-linecap="round" stroke-linejoin="round" stroke-width="2"/><path d="M74,67a3,3,0,0,1,0,6H32a3,3,0,0,1,0-6h4" fill="none" stroke="#6e2a27" stroke-linecap="round" stroke-linejoin="round" stroke-width="2"/><path d="M36,61a3,3,0,0,0,0,6H78a3,3,0,0,0,0-6H76" fill="none" stroke="#6e2a27" stroke-linecap="round" stroke-linejoin="round" stroke-width="2"/><path d="M51,55H76a3,3,0,0,1,0,6H34a3,3,0,0,1,0-6" fill="none" stroke="#6e2a27" stroke-linecap="round" stroke-linejoin="round" stroke-width="2"/><path d="M45,55H34a3,3,0,0,1,0-6" fill="none" stroke="#6e2a27" stroke-linejoin="round" stroke-width="2"/><path d="M57,49H76a3,3,0,0,1,0,6" fill="none" stroke="#6e2a27" stroke-linecap="round" stroke-linejoin="round" stroke-width="2"/><path d="M44,49H34a3,3,0,0,1,0-6" fill="none" stroke="#6e2a27" stroke-linecap="round" stroke-linejoin="round" stroke-width="2"/><path d="M76,43a3,3,0,0,1,0,6" fill="none" stroke="#6e2a27" stroke-linecap="round" stroke-linejoin="round" stroke-width="2"/><line x1="58" y1="43" x2="60" y2="43" fill="none" stroke="#6e2a27" stroke-linecap="round" stroke-linejoin="round" stroke-width="2"/><path d="M39,43H34a3,3,0,0,1,0-6" fill="none" stroke="#6e2a27" stroke-linecap="round" stroke-linejoin="round" stroke-width="2"/><path d="M76,37a3,3,0,0,1,0,6H60" fill="none" stroke="#6e2a27" stroke-linecap="round" stroke-linejoin="round" stroke-width="2"/><path d="M39,37H33V34a3,3,0,0,1,3-3H74a3,3,0,0,1,3,3v3H57" fill="none" stroke="#6e2a27" stroke-linecap="round" stroke-linejoin="round" stroke-width="2"/><circle cx="45" cy="28" r="3" fill="none" stroke="#6e2a27" stroke-linecap="round" stroke-linejoin="round" stroke-width="2"/><circle cx="51" cy="28" r="3" fill="none" stroke="#6e2a27" stroke-linecap="round" stroke-linejoin="round" stroke-width="2"/><path d="M51,45V55a3,3,0,0,1-6,0V43" fill="none" stroke="#6e2a27" stroke-linecap="round" stroke-miterlimit="10" stroke-width="2"/><path d="M57,37V49a3,3,0,0,1-6,0" fill="none" stroke="#6e2a27" stroke-linecap="round" stroke-miterlimit="10" stroke-width="2"/><path d="M45,43a3,3,0,0,1-6,0V37" fill="none" stroke="#6e2a27" stroke-linecap="round" stroke-miterlimit="10" stroke-width="2"/></g></svg>