<svg id="Capa_1" enable-background="new 0 0 511.999 511.999" height="512" viewBox="0 0 511.999 511.999" width="512" xmlns="http://www.w3.org/2000/svg"><g><g><g clip-rule="evenodd" fill-rule="evenodd"><path d="m144.499 104.965v60.001h15c8.25 0 15-6.751 15-15v-60.001h-15c-8.25 0-15 6.75-15 15z" fill="#717f99"/><path d="m144.499 149.966v-45.001h-106.999c-16.5 0-30 13.501-30 30v30.001c0 8.25 6.75 15 15 15h22.5c8.25 0 15-6.75 15-15s6.75-15 15-15z" fill="#ffc464"/><path d="m174.5 149.966c16.5 0 30 13.5 30 30v16c247.072 0 285-45.5 300-83.501v-7.5h-330z" fill="#fff"/><path d="m174.5 149.966c8.937 0 16.991 3.961 22.5 10.213v-55.214h-22.5z" fill="#cad8eb"/><path d="m322.5 270.965h-285c-8.25 0-15 6.75-15 15v120.001c102.5 24.858 187.5 17.945 270.001 0v-60c0-16.5 13.5-30 30-30zm-255 30c8.285 0 15 6.716 15 15s-6.716 15-15 15c-8.285 0-15-6.716-15-15s6.715-15 15-15z" fill="#fff"/><path d="m322.5 270.965h30.001v45.001h-30.001z" fill="#ffc464"/><path d="m352.501 270.965v45.001h69.5c8.25 0 15 6.749 15 15 0 8.249 6.75 15 15 15h22.5c8.25 0 15-6.75 15-15v-30c0-16.5-13.5-30-30-30h-107z" fill="#9a999d"/><path d="m60 104.965h-22.5c-16.5 0-30 13.501-30 30v30.001c0 8.25 6.75 15 15 15h22.5c-8.25 0-15-6.75-15-15v-30.001c0-16.499 13.5-30 30-30z" fill="#ff8d4c"/><path d="m144.499 142.467v22.5h15c8.25 0 15-6.751 15-15v-22.5c0 8.249-6.75 15-15 15z" fill="#717f99"/><path d="m144.499 104.965v60.001h15c8.25 0 15-6.751 15-15v-60.001h-15c-8.25 0-15 6.75-15 15z" fill="#ffc464"/><path d="m60 270.965h-22.5c-8.25 0-15 6.75-15 15v120.001c7.595 1.842 15.091 3.505 22.5 5.007v-125.008c0-8.25 6.751-15 15-15z" fill="#cad8eb"/></g><g><path d="m444.5 142.465h-15v-15h15zm-30 0h-15v-15h15z"/></g></g><g><path d="m459.5 263.465h-354.5v15h210l.001 30.756c-17.096 3.484-30 18.635-30 36.745v53.936c-43.778 9.221-82.104 13.876-120.146 14.617-45.015.877-89.181-3.864-134.855-14.48v-114.074c0-4.136 3.364-7.5 7.5-7.5h22.5v-15h-22.5c-12.406 0-22.5 10.093-22.5 22.5v125.899l5.732 1.39c49.006 11.885 93.8 16.281 134.282 16.28 54.217-.001 100.69-7.89 139.08-16.24l5.906-1.285v-66.044c0-12.406 10.094-22.5 22.5-22.5h99.5c4.136 0 7.5 3.364 7.5 7.5 0 12.407 10.094 22.5 22.5 22.5h22.5c12.406 0 22.5-10.093 22.5-22.5v-30c0-20.678-16.822-37.5-37.5-37.5zm-114.499 15v30.001h-15v-30.001zm136.999 52.5c0 4.136-3.364 7.5-7.5 7.5h-22.499c-4.136 0-7.5-3.364-7.5-7.5 0-12.406-10.094-22.5-22.5-22.5h-62v-30.001h99.499c12.406 0 22.5 10.093 22.5 22.5z"/><path d="m75 263.465h15v15h-15z"/><path d="m45 315.965c0 12.407 10.094 22.5 22.5 22.5s22.5-10.094 22.5-22.5-10.094-22.5-22.5-22.5-22.5 10.093-22.5 22.5zm30 0c0 4.136-3.364 7.5-7.5 7.5s-7.5-3.365-7.5-7.5 3.364-7.5 7.5-7.5 7.5 3.365 7.5 7.5z"/><path d="m234.499 97.465v15h261.897c-7.256 17.094-19.988 34.657-57.544 48.994-46.515 17.757-120.775 26.598-226.852 26.993v-8.486c0-18.11-12.904-33.261-30-36.745v-30.755h37.499v-15h-37.499v-15h-22.501c-9.777 0-18.114 6.271-21.21 15h-100.789c-20.678 0-37.5 16.822-37.5 37.5v30c0 12.406 10.094 22.5 22.5 22.5h22.499c12.406 0 22.5-10.093 22.5-22.5 0-4.135 3.364-7.5 7.5-7.5h62v15h22.5c9.479 0 17.601-5.894 20.91-14.207 9.548 2.602 16.591 11.346 16.591 21.707v23.5h7.5c111.951 0 190.357-9.157 239.702-27.993 45.122-17.225 59.328-40.125 67.273-60.254l.523-1.327v-16.427zm-182 67.501c0 4.135-3.364 7.5-7.5 7.5h-22.499c-4.136 0-7.5-3.364-7.5-7.5v-30c0-12.407 10.094-22.5 22.5-22.5h14.999zm15-21.215v-31.286h27.25v30h-19.75c-2.628.001-5.153.454-7.5 1.286zm42.25-1.285v-30h27.25v30zm57.251 7.5c0 4.136-3.365 7.5-7.501 7.5h-7.5v-52.501c0-4.136 3.364-7.5 7.5-7.5h7.501z"/></g></g></svg>